<svg width="26" height="24" viewBox="0 0 26 24" fill="none" xmlns="http://www.w3.org/2000/svg">
<path d="M13.7342 17.0182C12.8606 17.0559 12.1218 16.3782 12.0842 15.5045C12.0466 14.6309 12.7243 13.8921 13.5979 13.8545C14.4716 13.8169 15.2103 14.4946 15.2479 15.3682C15.2856 16.2419 14.6079 16.9806 13.7342 17.0182Z" fill="#FF009D"/>
<path d="M13.121 2.78163C13.991 2.74416 14.7335 3.42534 14.771 4.29537L15.0436 10.6228C15.081 11.4929 14.3998 12.2354 13.5298 12.2728C12.6598 12.3103 11.9173 11.6291 11.8798 10.7591L11.6073 4.43164C11.5698 3.56161 12.251 2.81911 13.121 2.78163Z" fill="#FF009D"/>
<path d="M10.7741 19.4768C10.0896 19.6524 9.39235 19.2398 9.2168 18.5553C9.04124 17.8708 9.45381 17.1736 10.1383 16.998C10.8228 16.8225 11.52 17.2351 11.6956 17.9196C11.8711 18.604 11.4585 19.3013 10.7741 19.4768Z" fill="#FF009D"/>
<path d="M7.91321 8.32251C8.59487 8.14768 9.29563 8.56236 9.47046 9.24402L10.742 14.2015C10.9168 14.8832 10.5021 15.584 9.82045 15.7588C9.13879 15.9336 8.43802 15.519 8.26319 14.8373L6.9917 9.87977C6.81687 9.19811 7.23155 8.49734 7.91321 8.32251Z" fill="#FF009D"/>
<path d="M16.9523 16.8044C16.387 16.6851 16.0254 16.1301 16.1447 15.5648C16.2639 14.9995 16.8189 14.6379 17.3842 14.7572C17.9496 14.8765 18.3111 15.4314 18.1919 15.9968C18.0726 16.5621 17.5176 16.9237 16.9523 16.8044Z" fill="#FF009D"/>
<path d="M18.8959 7.59202C19.4589 7.7108 19.8224 8.26861 19.7036 8.83159L18.8397 12.926C18.7209 13.489 18.1631 13.8524 17.6001 13.7337C17.0372 13.6149 16.6737 13.0571 16.7925 12.4941L17.6564 8.39966C17.7752 7.83667 18.333 7.47323 18.8959 7.59202Z" fill="#FF009D"/>
</svg>
