<svg width="36" height="35" viewBox="0 0 36 35" fill="none" xmlns="http://www.w3.org/2000/svg">
<path fill-rule="evenodd" clip-rule="evenodd" d="M20.2728 20.2728C22.7854 17.7602 22.7854 13.6864 20.2728 11.1738C17.7602 8.66116 13.6864 8.66116 11.1738 11.1738C8.66116 13.6864 8.66116 17.7602 11.1738 20.2728C13.6864 22.7854 17.7602 22.7854 20.2728 20.2728ZM21.6376 24.6707C17.4741 27.4291 11.8091 26.9742 8.14078 23.3058C3.95307 19.1181 3.95307 12.3285 8.14078 8.14078C12.3285 3.95307 19.1181 3.95307 23.3058 8.14078C26.9742 11.8091 27.4291 17.4741 24.6707 21.6376L29.3718 26.3388C30.2094 27.1764 30.2094 28.5343 29.3718 29.3718C28.5343 30.2094 27.1764 30.2094 26.3388 29.3718L21.6376 24.6707Z" fill="#38B6FF"/>
</svg>
